<svg xmlns="http://www.w3.org/2000/svg" xmlns:svg="http://www.w3.org/2000/svg" id="svg169" width="16" height="16" version="1.1" viewBox="0 0 16 16"><filter id="a" width="1" height="1" x="0" y="0"><feColorMatrix id="feColorMatrix2" in="SourceGraphic" type="matrix" values="0 0 0 0 1 0 0 0 0 1 0 0 0 0 1 0 0 0 1 0"/></filter><mask id="b"><g id="g7" filter="url(#a)"><path id="path5" fill-opacity=".3" d="m 0 0 h 16 v 16 h -16 z"/></g></mask><clipPath id="c"><path id="path10" d="m 0 0 h 1024 v 800 h -1024 z"/></clipPath><mask id="d"><g id="g15" filter="url(#a)"><path id="path13" fill-opacity=".05" d="m 0 0 h 16 v 16 h -16 z"/></g></mask><clipPath id="e"><path id="path18" d="m 0 0 h 1024 v 800 h -1024 z"/></clipPath><mask id="f"><g id="g23" filter="url(#a)"><path id="path21" fill-opacity=".05" d="m 0 0 h 16 v 16 h -16 z"/></g></mask><clipPath id="g"><path id="path26" d="m 0 0 h 1024 v 800 h -1024 z"/></clipPath><mask id="h"><g id="g31" filter="url(#a)"><path id="path29" fill-opacity=".05" d="m 0 0 h 16 v 16 h -16 z"/></g></mask><clipPath id="i"><path id="path34" d="m 0 0 h 1024 v 800 h -1024 z"/></clipPath><mask id="j"><g id="g39" filter="url(#a)"><path id="path37" fill-opacity=".05" d="m 0 0 h 16 v 16 h -16 z"/></g></mask><clipPath id="k"><path id="path42" d="m 0 0 h 1024 v 800 h -1024 z"/></clipPath><mask id="l"><g id="g47" filter="url(#a)"><path id="path45" fill-opacity=".05" d="m 0 0 h 16 v 16 h -16 z"/></g></mask><clipPath id="m"><path id="path50" d="m 0 0 h 1024 v 800 h -1024 z"/></clipPath><mask id="n"><g id="g55" filter="url(#a)"><path id="path53" fill-opacity=".05" d="m 0 0 h 16 v 16 h -16 z"/></g></mask><clipPath id="o"><path id="path58" d="m 0 0 h 1024 v 800 h -1024 z"/></clipPath><mask id="p"><g id="g63" filter="url(#a)"><path id="path61" fill-opacity=".3" d="m 0 0 h 16 v 16 h -16 z"/></g></mask><clipPath id="q"><path id="path66" d="m 0 0 h 1024 v 800 h -1024 z"/></clipPath><mask id="r"><g id="g71" filter="url(#a)"><path id="path69" fill-opacity=".5" d="m 0 0 h 16 v 16 h -16 z"/></g></mask><clipPath id="s"><path id="path74" d="m 0 0 h 1024 v 800 h -1024 z"/></clipPath><mask id="t"><g id="g79" filter="url(#a)"><path id="path77" fill-opacity=".4" d="m 0 0 h 16 v 16 h -16 z"/></g></mask><clipPath id="u"><path id="path82" d="m 0 0 h 1024 v 800 h -1024 z"/></clipPath><mask id="v"><g id="g87" filter="url(#a)"><path id="path85" fill-opacity=".4" d="m 0 0 h 16 v 16 h -16 z"/></g></mask><clipPath id="w"><path id="path90" d="m 0 0 h 1024 v 800 h -1024 z"/></clipPath><mask id="x"><g id="g95" filter="url(#a)"><path id="path93" fill-opacity=".5" d="m 0 0 h 16 v 16 h -16 z"/></g></mask><clipPath id="y"><path id="path98" d="m 0 0 h 1024 v 800 h -1024 z"/></clipPath><mask id="z"><g id="g103" filter="url(#a)"><path id="path101" fill-opacity=".5" d="m 0 0 h 16 v 16 h -16 z"/></g></mask><clipPath id="A"><path id="path106" d="m 0 0 h 1024 v 800 h -1024 z"/></clipPath><g id="g115" fill="#2e3436"><path id="path109" d="m 4,3.5599585 h 1 c 0.257812,0 0.527344,0.128906 0.71875,0.3125 L 7,5.1537085 V 0.82986113 H 9 V 5.1537085 l 1.28125,-1.28125 c 0.191406,-0.183594 0.410156,-0.3125 0.71875,-0.3125 h 1 v 1 c 0,0.308594 -0.08984,0.550781 -0.28125,0.75 L 8,8.9662085 4.28125,5.3099585 C 4.089844,5.1107395 4,4.8685525 4,4.5599585 Z"/><path id="path111" d="m 1.007812 11.972656 c 0 1.664063 1.367188 3.035156 3.03125 3.035156 h 7.917969 c 1.664063 0 3.03125 -1.371093 3.03125 -3.035156 v -1.972656 h -2 v 1.972656 c 0 0.589844 -0.441406 1.035156 -1.03125 1.035156 h -7.917969 c -0.589843 0 -1.03125 -0.445312 -1.03125 -1.035156 v -1.972656 h -2 z m 0 0"/><path id="path113" d="m 4.039062 6.96875 c -1.664062 0 -3.03125 1.367188 -3.03125 3.03125 v 1.976562 h 2 v -1.976562 c 0 -0.589844 0.441407 -1.03125 1.03125 -1.03125 h 0.960938 v -2 z m 6.960938 0 v 2 h 0.957031 c 0.589844 0 1.03125 0.441406 1.03125 1.03125 v 1.976562 h 2 v -1.976562 c 0 -1.664062 -1.367187 -3.03125 -3.03125 -3.03125 z m 0 0"/></g><g id="g119" clip-path="url(#c)" mask="url(#b)" transform="matrix(1 0 0 1 -720 -684)"><path id="path117" fill="#2e3436" d="m 562.460938 212.058594 h 10.449218 c -1.183594 0.492187 -1.296875 2.460937 0 3 h -10.449218 z m 0 0"/></g><g id="g123" clip-path="url(#e)" mask="url(#d)" transform="matrix(1 0 0 1 -720 -684)"><path id="path121" fill="#2e3436" fill-rule="evenodd" d="m 16 632 h 1 v 1 h -1 z m 0 0"/></g><g id="g127" clip-path="url(#g)" mask="url(#f)" transform="matrix(1 0 0 1 -720 -684)"><path id="path125" fill="#2e3436" fill-rule="evenodd" d="m 17 631 h 1 v 1 h -1 z m 0 0"/></g><g id="g131" clip-path="url(#i)" mask="url(#h)" transform="matrix(1 0 0 1 -720 -684)"><path id="path129" fill="#2e3436" fill-rule="evenodd" d="m 18 634 h 1 v 1 h -1 z m 0 0"/></g><g id="g135" clip-path="url(#k)" mask="url(#j)" transform="matrix(1 0 0 1 -720 -684)"><path id="path133" fill="#2e3436" fill-rule="evenodd" d="m 16 634 h 1 v 1 h -1 z m 0 0"/></g><g id="g139" clip-path="url(#m)" mask="url(#l)" transform="matrix(1 0 0 1 -720 -684)"><path id="path137" fill="#2e3436" fill-rule="evenodd" d="m 17 635 h 1 v 1 h -1 z m 0 0"/></g><g id="g143" clip-path="url(#o)" mask="url(#n)" transform="matrix(1 0 0 1 -720 -684)"><path id="path141" fill="#2e3436" fill-rule="evenodd" d="m 19 635 h 1 v 1 h -1 z m 0 0"/></g><g id="g147" clip-path="url(#q)" mask="url(#p)" transform="matrix(1 0 0 1 -720 -684)"><path id="path145" fill="#2e3436" d="m 136 660 v 7 h 7 v -7 z m 0 0"/></g><g id="g151" clip-path="url(#s)" mask="url(#r)" transform="matrix(1 0 0 1 -720 -684)"><path id="path149" fill="#2e3436" d="m 199 642 h 3 v 12 h -3 z m 0 0"/></g><g id="g155" clip-path="url(#u)" mask="url(#t)" transform="matrix(1 0 0 1 -720 -684)"><path id="path153" fill="#2e3436" d="m 209.5 144.160156 c 0.277344 0 0.5 0.222656 0.5 0.5 v 1 c 0 0.277344 -0.222656 0.5 -0.5 0.5 s -0.5 -0.222656 -0.5 -0.5 v -1 c 0 -0.277344 0.222656 -0.5 0.5 -0.5 z m 0 0"/></g><g id="g159" clip-path="url(#w)" mask="url(#v)" transform="matrix(1 0 0 1 -720 -684)"><path id="path157" fill="#2e3436" d="m 206.5 144.160156 c 0.277344 0 0.5 0.222656 0.5 0.5 v 1 c 0 0.277344 -0.222656 0.5 -0.5 0.5 s -0.5 -0.222656 -0.5 -0.5 v -1 c 0 -0.277344 0.222656 -0.5 0.5 -0.5 z m 0 0"/></g><g id="g163" clip-path="url(#y)" mask="url(#x)" transform="matrix(1 0 0 1 -720 -684)"><path id="path161" fill="#2e3436" d="m 229.5 143.160156 c -0.546875 0 -1 0.457032 -1 1 c 0 0.546875 0.453125 1 1 1 s 1 -0.453125 1 -1 c 0 -0.542968 -0.453125 -1 -1 -1 z m 0 0"/></g><g id="g167" clip-path="url(#A)" mask="url(#z)" transform="matrix(1 0 0 1 -720 -684)"><path id="path165" fill="#2e3436" d="m 226.453125 143.160156 c -0.519531 0 -0.953125 0.433594 -0.953125 0.953125 v 0.09375 c 0 0.519531 0.433594 0.953125 0.953125 0.953125 h 0.09375 c 0.519531 0 0.953125 -0.433594 0.953125 -0.953125 v -0.09375 c 0 -0.519531 -0.433594 -0.953125 -0.953125 -0.953125 z m 0 0"/></g></svg>